<svg xmlns:xlink="http://www.w3.org/1999/xlink" xmlns="http://www.w3.org/2000/svg" xml:space="preserve" style="enable-background:new 0 0 263.11 74.25;" viewBox="0 0 263.11 74.25" y="0px" x="0px" id="Layer_1" version="1.1">
<style type="text/css">
	.st0{fill:#457AF5;}
</style>
<g>
	<g>
		<g>
			<path d="M34.07,17.78c0.77-0.21,1.62-0.18,2.34,0.16c0.33,0.16,0.65,0.36,1.03,0.34c0.54-0.04,0.99-0.5,1-1.05     c0.01-1-1.32-1.37-2.09-1.55c-0.99-0.23-2.04-0.22-3.01,0.07c-0.4,0.12-0.79,0.29-1.15,0.5c-1.54,0.89-2.35,2.57-2.11,4.33     c0.01,0.1,0.03,0.21,0.09,0.3c0.12,0.17,0.26,0.12,0.39-0.01c0.19-0.2,0.37-0.57,0.45-0.69c0.3-0.44,0.64-0.85,1.03-1.21     C32.61,18.43,33.3,17.99,34.07,17.78z" class="st0"/>
			<path d="M66.48,36.25c-0.46-0.59-0.99-1.07-1.57-1.53c-0.87-0.69-1.9-1.24-2.94-1.63c0.04-0.93,0.03-1.87-0.11-2.79     c0.22-0.05,0.43-0.1,0.65-0.14c0.51-0.08,1.04-0.03,1.55,0.05c0.48,0.08,0.95,0.18,1.41,0.32c0.45,0.14,0.87,0.38,1.32,0.51     c0.15,0.04,0.31,0.07,0.46,0.04c0.18-0.04,0.34-0.18,0.36-0.35c0.01-0.12-0.04-0.24-0.1-0.34c-0.25-0.46-0.65-0.81-1.09-1.12     c-0.53-0.39-1.11-0.69-1.76-0.88c-1.07-0.3-2.26-0.24-3.34,0.03c-0.03-0.07-0.05-0.14-0.08-0.2c-0.75-1.61-2.14-2.44-3.59-3.33     c-0.66-0.4-1.33-0.84-1.68-1.55c-0.44-0.89-0.41-1.96-0.52-2.92c-0.4-3.54-2.1-6.88-4.76-9.27c-1.53-1.38-3.25-2.23-5.13-3.03     c-1.49-0.63-4.52-2.16-3.45-4.29c0.38-0.76-0.25-1.62-1.09-1.42c-1.21,0.29-2.37,0.78-3.42,1.44c-0.04-0.23-0.07-0.45-0.06-0.69     c0.02-0.54,0.18-1.06,0.44-1.53c0.45-0.82-0.29-1.8-1.21-1.57c-1.84,0.46-3.59,1.3-5.06,2.5c-1.53-1.69-3.68-2.65-6.01-2.52     c-0.62,0.03-1.13,0.6-0.94,1.24c0.92,3.24-4.77,4.01-6.68,4.91c-2.66,1.25-4.75,3.44-6.33,5.88c-1.2,0.01-2.39,0.31-3.36,0.99     c-3.2,2.27-2.74,6.77-0.73,9.66C6.78,26.27,5.88,29.86,5,33.44C4.12,37,3.06,40.57,2.75,44.24c-0.06,0.7-0.07,1.39-0.05,2.08     c-2.43,1.55-2.96,5.62-2.6,8.16c0.55,3.88,3.18,7.08,6.14,9.47c6.05,4.88,13.68,7.58,21.24,9.07c4.19,0.82,8.46,1.29,12.73,1.22     c0.43-0.01,0.96-0.32,1.03-0.79c0.4-2.55,0.57-5.13,0.91-7.68c0.54-0.15,1.08-0.33,1.6-0.53c0.44,1.37,0.93,2.72,1.4,4.08     c0.33,0.95,0.61,2.48,1.88,2.51c1.15,0.02,2.42-1.25,3.17-1.99c1.06-1.03,1.85-2.3,2.44-3.64c2.19-5.02,2.84-11.13-1.23-15.32     c-0.34-1.64-0.89-3.25-1.59-4.77c0.89-0.1,1.76-0.26,2.63-0.5c2.96-0.81,6.76-3.05,7.39-6.34c0.01-0.07,0-0.14,0-0.21     c0.15-0.1,0.29-0.2,0.43-0.33c1-0.93,1.36-2.21,1.53-3.51c0.38,0.19,0.76,0.38,1.13,0.59c1.29,0.74,2.51,1.62,3.63,2.63     c0.14,0.13,0.29,0.27,0.47,0.32c0.38,0.12,0.73-0.29,0.53-0.68C67.24,37.44,66.92,36.8,66.48,36.25z M39.29,72.1     c-6.76-0.01-13.57-1.25-19.93-3.49c-3.25-1.14-6.42-2.59-9.3-4.5c-2.94-1.95-5.9-4.43-7.27-7.78c-0.66-1.6-0.85-3.38-0.57-5.08     c0.14-0.84,0.43-1.56,0.79-2.26c0.33,1.62,0.92,3.19,1.82,4.63c1.61,2.59,3.92,4.67,6.42,6.38c5.46,3.73,11.98,5.92,18.53,6.58     c3.32,0.34,6.71,0.27,10.01-0.28c0.06-0.01,0.12-0.02,0.18-0.03C39.74,68.21,39.56,70.16,39.29,72.1z M51.22,64.04     c-0.73,2.13-1.88,3.99-3.74,5.3c-0.13-0.53-0.44-1.13-0.6-1.59c-0.4-1.13-0.78-2.26-1.2-3.38c0.89-0.48,1.73-1.05,2.49-1.73     c2.32-2.08,3.37-4.7,3.58-7.46c0.3,0.75,0.5,1.54,0.56,2.38C52.48,59.76,51.93,61.96,51.22,64.04z M47.44,60.34     c-3.94,4.34-11,4.59-16.43,4.21c-2.15-0.15-4.3-0.5-6.4-1.01c-0.24-2.93,0-5.81,1.16-8.55c1.11-2.61,2.95-4.95,5.32-6.52     c5.01-3.34,10.8-2.07,16.43-2.21C49.76,50.57,51.04,56.37,47.44,60.34z M58.42,37.45c-0.86,0.34-1.76-0.46-2.12-1.17     c-0.24-0.46-0.36-0.97-0.45-1.48c0.23-0.25,0.43-0.54,0.62-0.83c0.65-0.99,1.26-2.02,1.62-3.16c0.03-0.11,0.07-0.21,0.09-0.32     c0.07-0.31,0.1-0.62,0.03-0.92c-0.24-0.92-1.31-1.27-2.14-1.36c-1.15-0.14-2.3,0.12-3.39,0.5c-1.12,0.39-2.28,0.97-2.76,2.14     c-0.51,1.26,0.35,2.37,1.31,3.09c0.53,0.39,1.12,0.91,1.76,1.26c-0.04,0.13-0.08,0.27-0.13,0.39c-0.3,0.77-0.77,1.49-1.34,2.08     c-1.33,1.37-3.19,1.97-5.07,1.9c-1.88-0.08-3.74-0.86-5.09-2.18c-0.18-0.18-0.34-0.37-0.49-0.56c0.49-0.07,0.98-0.13,1.47-0.16     c1.13-0.07,2.27,0.14,3.38-0.09c0.24-0.05,0.49-0.12,0.65-0.3c0.18-0.19,0.21-0.46,0.13-0.71c-0.03-0.09-0.07-0.17-0.12-0.25     c-0.2-0.28-0.54-0.46-0.88-0.57c-0.97-0.31-1.99-0.17-2.98-0.12c-0.8,0.04-1.6,0.12-2.39,0.25c-0.04-0.88,0.39-1.64,0.38-2.51     c-0.01-0.53-0.54-0.76-0.98-0.56c-1.07,0.47-1.32,2.06-1.26,3.1c0.01,0.11,0.03,0.22,0.04,0.33c-0.1,0.02-0.2,0.04-0.3,0.07     c-2.84,0.7-5.74,1.91-7.66,4.1c-0.38,0.44,0.09,1.1,0.66,0.81c2.48-1.29,5.11-2.38,7.87-3.02c0.18,0.38,0.38,0.74,0.62,1.08     c1.49,2.08,3.99,3.16,6.48,3.4c2.5,0.23,5.08-0.58,6.9-2.34c0.64-0.62,1.17-1.34,1.58-2.13c0.27,0.56,0.63,1.07,1.1,1.49     c0.55,0.48,1.2,0.77,1.86,0.88c-0.59,0.94-1.23,1.77-2.22,2.46c-1.32,0.91-2.81,1.47-4.37,1.77c-3.88,0.76-7.87,0.02-11.78,0.16     c-3.47,0.12-6.83,1-9.65,3.09c-2.39,1.77-4.28,4.13-5.47,6.86c-1.24,2.82-1.79,5.97-1.46,9.04c-3.11-0.95-6.1-2.27-8.87-3.97     c-2.31-1.42-4.52-3.14-6.17-5.32c-1.84-2.42-2.7-5.24-2.62-8.28c0.11-3.74,1.26-7.42,2.15-11.03c0.8-3.24,1.56-6.49,2.35-9.73     c0.3,0.3,0.6,0.59,0.93,0.86c0.4,0.34,2.23,1.74,2.68,0.81c0.42-0.87-0.79-1.91-1.35-2.44c-0.79-0.74-1.57-1.51-2.18-2.41     c-1-1.48-1.53-3.28-0.96-5.03c0.58-1.78,2.41-2.46,4.15-2.21c1.07,0.15,2.07,0.62,2.99,1.18c0.8,0.48,2.1,1.8,3.11,1.4     c0.31-0.12,0.48-0.33,0.51-0.67c0.09-1.06-1.41-1.86-2.17-2.34c-0.91-0.58-1.9-1.09-2.93-1.41c-0.02-0.01-0.05-0.01-0.08-0.02     c1.8-2.47,4.1-4.22,7.1-5.17c1.56-0.49,3.26-1.01,4.39-2.27c0.74-0.83,1.25-1.84,1.31-2.91c1.38,0.16,2.62,0.79,3.59,1.8     c-1.23,1.36-2.33,2.86-3.02,4.57c-0.12,0.3-0.29,0.69-0.26,1.02c0.01,0.11,0.06,0.22,0.16,0.27c0.1,0.05,0.21,0.03,0.31-0.02     c0.01-0.01,0.03-0.02,0.04-0.03c0.1-0.08,0.17-0.19,0.23-0.29c1.03-1.7,2.18-3.32,3.82-4.49c1.18-0.84,2.46-1.57,3.8-2.12     c-0.01,0.11-0.03,0.22-0.04,0.33c-0.04,0.71,0.05,1.52,0.4,2.17c-0.9,0.87-1.64,1.89-2.17,3.04c-0.22,0.48,0.38,0.82,0.7,0.41     c1.45-1.92,3.38-3.31,5.62-4.03c-0.01,0.88,0.26,1.76,0.76,2.54c0.93,1.45,2.46,2.2,4,2.85c2.49,1.05,4.61,2.45,6.19,4.53     c-0.21,0.01-0.42,0.03-0.63,0.07c-0.92,0.17-1.83,0.74-2.38,1.49c-0.25,0.35-0.42,0.78-0.34,1.21c0.04,0.23,0.16,0.46,0.37,0.57     c0.15,0.08,0.32,0.08,0.48,0.05c0.06-0.01,0.11-0.03,0.17-0.05c0.6-0.26,0.98-0.85,1.55-1.17c0.38-0.21,0.82-0.32,1.24-0.24     c0.34,0.07,0.62,0.17,0.89,0.32c0.35,0.75,0.62,1.54,0.81,2.34c-0.14-0.02-0.29-0.04-0.44-0.04c-1.43,0-2.58,1.08-2.58,2.41     c0,1.33,1.16,2.41,2.58,2.41c0.44,0,0.84-0.11,1.21-0.29c0.21,0.65,0.53,1.26,1.05,1.8c1.04,1.09,2.55,1.54,3.63,2.57     c1.2,1.14,1.35,2.88,1.32,4.44C59.85,33.83,60.04,36.81,58.42,37.45z" class="st0"/>
			<path d="M45.3,30.02c-2.09-0.83-4.56-1.04-6.79-0.89c-2.37,0.16-4.82,0.78-6.88,2.03c-0.44,0.27-0.15,0.96,0.34,0.84     c2.18-0.55,4.39-0.74,6.64-0.76c2.1-0.02,4.14,0.14,6.14,0.8C46.03,32.45,46.5,30.5,45.3,30.02z" class="st0"/>
			<path d="M33.89,24.06c0,1.4,1.22,2.54,2.73,2.54c1.51,0,2.73-1.14,2.73-2.54c0-1.4-1.22-2.54-2.73-2.54     C35.11,21.52,33.89,22.65,33.89,24.06z" class="st0"/>
			<path d="M14.59,39.13c-0.15,0.03-0.27,0.1-0.37,0.2c-0.16,0.16-0.27,0.38-0.34,0.6c-0.35,1.01-0.59,2.06-0.74,3.12     c-0.07,0.52-0.13,1.05-0.16,1.57c-0.03,0.4-0.17,1.04,0.06,1.39c0.13,0.2,0.39,0.31,0.62,0.23c0.36-0.14,0.48-0.72,0.61-1.05     c0.2-0.51,0.38-1.02,0.54-1.54c0.32-1.04,0.55-2.11,0.68-3.19c0.03-0.25,0.06-0.5-0.01-0.74C15.38,39.34,14.98,39.05,14.59,39.13     z" class="st0"/>
			<path d="M10.12,41.13c0.09-0.46-0.13-0.99-0.63-1.1c-0.48-0.11-0.96,0.14-1.1,0.63C8.18,41.37,8,42.08,7.88,42.83     c-0.12,0.76-0.2,1.55-0.21,2.32c0,0.51,0.75,0.75,1,0.27c0.35-0.68,0.65-1.4,0.89-2.13C9.8,42.58,9.97,41.86,10.12,41.13z" class="st0"/>
			<path d="M10.74,47.01c-0.33-0.07-0.7,0.02-0.91,0.28c-0.08,0.1-0.14,0.22-0.19,0.35c-0.03,0.07-0.05,0.15-0.07,0.23     c-0.37,1.28-0.59,2.61-0.65,3.94c-0.01,0.23-0.01,0.48,0.13,0.66c0.16,0.21,0.48,0.26,0.7,0.12c0.15-0.1,0.23-0.26,0.31-0.42     c0.58-1.21,1-2.49,1.27-3.8C11.43,47.83,11.38,47.16,10.74,47.01z" class="st0"/>
			<path d="M13.93,16c-0.55-0.18-1.16-0.32-1.74-0.26c-0.6,0.06-1.15,0.18-1.71,0.4c-0.3,0.11-0.24,0.51,0.07,0.55     c0.43,0.05,0.9,0.18,1.28,0.37c0.44,0.22,0.9,0.41,1.32,0.68c0.2,0.13,0.39,0.28,0.59,0.42c0.04,0.03,0.07,0.05,0.08,0.05     c0.02,0.02,0.04,0.03,0.06,0.05c0.1,0.08,0.21,0.17,0.31,0.25c0.18,0.16,0.35,0.33,0.51,0.51c0.04,0.05,0.08,0.09,0.12,0.14     c0.01,0.01,0.01,0.01,0.01,0.02c0.08,0.11,0.15,0.22,0.22,0.33c0.29,0.48,0.97,0.7,1.46,0.38c0.47-0.31,0.7-0.96,0.38-1.46     C16.19,17.34,15.18,16.41,13.93,16z" class="st0"/>
		</g>
		<g>
			<path d="M81.24,38.16c7.8,0,14.08,6.69,14.08,14.56c0,8.01-6.27,14.7-14.08,14.7c-7.8,0-14.08-6.69-14.08-14.7     C67.17,44.85,73.44,38.16,81.24,38.16z M81.24,61.44c4.39,0,7.87-3.9,7.87-8.71c0-4.67-3.48-8.5-7.87-8.5     c-4.39,0-7.87,3.83-7.87,8.5C73.37,57.54,76.85,61.44,81.24,61.44z" class="st0"/>
			<path d="M98.97,44.64h-2.93c-0.77,0-1.32-0.63-1.32-1.32v-3.14c0-0.77,0.56-1.32,1.32-1.32h2.93v-7.73     c0-0.7,0.63-1.32,1.32-1.32l3.97-0.07c0.7,0,1.25,0.63,1.25,1.32v7.8h10c0.77,0,1.32,0.56,1.32,1.32v3.14     c0,0.7-0.56,1.32-1.32,1.32h-10v13.8c0,2.37,0.91,2.79,2.23,2.79c1.46,0,3.41-0.84,4.25-1.25c0.91-0.42,1.32,0,1.6,0.63     l1.25,3.07c0.35,0.77,0.07,1.32-0.63,1.67c-0.7,0.42-4.81,2.09-8.15,2.09c-5.5,0-7.11-3.34-7.11-8.29V44.64z" class="st0"/>
			<path d="M117.33,44.64h-2.93c-0.77,0-1.32-0.63-1.32-1.32v-3.14c0-0.77,0.56-1.32,1.32-1.32h2.93v-7.73     c0-0.7,0.63-1.32,1.32-1.32l3.97-0.07c0.7,0,1.25,0.63,1.25,1.32v7.8h7.11c0.77,0,1.32,0.56,1.32,1.32v3.14     c0,0.7-0.56,1.32-1.32,1.32h-7.11v13.8c0,2.37,0.91,2.79,2.23,2.79c1.46,0,3.41-0.84,4.25-1.25c0.91-0.42,1.32,0,1.6,0.63     l1.25,3.07c0.35,0.77,0.07,1.32-0.63,1.67c-0.7,0.42-4.81,2.09-8.15,2.09c-5.51,0-7.11-3.34-7.11-8.29V44.64z" class="st0"/>
			<path d="M146.92,38.16c7.25,0,12.82,5.44,12.82,12.89c0,0.49-0.07,1.39-0.14,1.88c-0.07,0.7-0.63,1.18-1.25,1.18     h-18.95c0.21,3.76,3.48,7.46,8.01,7.46c2.51,0,4.81-1.11,6.2-2.02c0.84-0.49,1.32-0.77,1.88-0.07l1.95,2.65     c0.49,0.56,0.7,1.11-0.14,1.81c-2.02,1.74-5.64,3.48-10.31,3.48c-8.43,0-14.01-6.62-14.01-14.63     C132.98,44.92,138.56,38.16,146.92,38.16z M153.26,49.73c-0.21-3.34-3-6.2-6.41-6.2c-3.76,0-6.69,2.72-7.11,6.2H153.26z" class="st0"/>
			<path d="M162.95,40.19c0-0.7,0.63-1.32,1.32-1.32h2.02c0.49,0,1.05,0.42,1.18,0.98l0.77,2.37     c0.49-0.7,3.07-4.04,8.15-4.04c2.65,0,5.85,0.7,5.09,2.58l-1.67,3.41c-0.35,0.77-1.05,0.91-1.67,0.63     c-0.42-0.21-1.46-0.49-2.37-0.49c-4.04,0-5.99,2.93-6.27,3.41v17.7c0,1.18-0.77,1.32-1.88,1.32h-3.34c-0.7,0-1.32-0.63-1.32-1.32     V40.19z" class="st0"/>
			<path d="M193.79,38.16c3.55,0,6.06,1.32,6.69,1.53V22.9c0-0.7,0.63-1.32,1.32-1.32h4.04c0.7,0,1.32,0.63,1.32,1.32     v42.51c0,0.7-0.63,1.32-1.32,1.32h-2.09c-0.63,0-1.04-0.49-1.25-1.18l-0.56-2.02c0,0-3.34,3.9-8.85,3.9     c-7.39,0-13.03-6.62-13.03-14.63C180.07,44.64,186.06,38.16,193.79,38.16z M193.93,61.44c4.25,0,6.27-3.41,6.62-4.18V45.9     c0,0-2.44-1.67-6.06-1.67c-4.67,0-7.94,3.83-7.94,8.57C186.55,57.47,189.47,61.44,193.93,61.44z" class="st0"/>
			<path d="M217.5,39.32c6.56-3.09,13.91-0.55,17.09,6.2c0.21,0.44,0.53,1.29,0.68,1.76c0.23,0.66-0.06,1.34-0.63,1.61     l-17.15,8.08c1.79,3.32,6.33,5.26,10.43,3.33c2.27-1.07,3.87-3.06,4.75-4.47c0.55-0.8,0.87-1.26,1.67-0.86l2.89,1.56     c0.68,0.3,1.11,0.71,0.65,1.7c-1.09,2.44-3.62,5.56-7.85,7.55c-7.63,3.59-15.49-0.02-18.91-7.27     C207.77,51.38,209.94,42.89,217.5,39.32z M228.17,47.09c-1.61-2.94-5.35-4.33-8.44-2.88c-3.4,1.6-4.89,5.31-3.79,8.64     L228.17,47.09z" class="st0"/>
			<path d="M235.57,40.46c-0.42-0.91,0-1.6,1.04-1.6h4.11c0.7,0,1.04,0.35,1.25,0.77l7.25,16.44h0.07l7.53-16.44     c0.35-0.77,1.11-0.77,1.88-0.77h3.21c1.04,0,1.46,0.7,1.04,1.6l-12.33,26.27c-0.14,0.35-0.56,0.7-1.18,0.7h-0.35     c-0.63,0-1.04-0.35-1.18-0.7L235.57,40.46z" class="st0"/>
		</g>
	</g>
</g>
</svg>